<svg id="Layer_2" enable-background="new 0 0 512 512" height="512" viewBox="0 0 512 512" width="512" xmlns="http://www.w3.org/2000/svg"><g><g><path d="m10 361c0 30.376 110.138 56 246 56s246-25.624 246-56v-209c0 30.376-110.138 55-246 55s-246-24.624-246-55z" fill="#ffe352"/></g><g><ellipse cx="256" cy="152" fill="#6e83b7" rx="246" ry="55"/></g><g><path d="m10 152c0 30.376 110.138 55 246 55v-48.248c0-34.562-29.13-61.954-63.63-59.894-105.019 6.269-182.37 27.686-182.37 53.142z" fill="#466089"/></g><g><path d="m275.906 394.5h-40c-23.435 0-42.5-19.065-42.5-42.5v-80c0-23.435 19.065-42.5 42.5-42.5h40c23.435 0 42.5 19.065 42.5 42.5v13h-25v-13c0-9.65-7.851-17.5-17.5-17.5h-40c-9.649 0-17.5 7.85-17.5 17.5v80c0 9.65 7.851 17.5 17.5 17.5h40c9.649 0 17.5-7.85 17.5-17.5v-13h25v13c0 23.435-19.065 42.5-42.5 42.5z" fill="#6e83b7"/></g></g></svg>