<svg id="Layer_1" enable-background="new 0 0 512 512" height="512" viewBox="0 0 512 512" width="512" xmlns="http://www.w3.org/2000/svg"><path d="m258.899 341.617-111.359 111.359c-.494.494-1.086.879-1.738 1.13l-129.522 49.9c-5.189 2.008-10.301-3.104-8.293-8.293l49.9-129.522c.251-.652.636-1.244 1.13-1.738l111.359-111.359z" fill="#95dae8"/><path d="m43.047 493.698-26.767 10.308c-5.189 2.008-10.301-3.104-8.293-8.293l49.9-129.521c.255-.65.636-1.244 1.131-1.739l111.359-111.359 24.745 24.745-111.36 111.359c-.495.495-.877 1.089-1.131 1.739z" fill="#60c8dd"/><path d="m464.209 47.603c-53.549-53.446-140.321-53.4-193.812.091-24.96 24.96-38.276 57.146-39.974 89.817-1.29 24.98-8.11 48.335-18.199 70.736l24.157 67.372 67.137 23.922c22.543-10.128 46.465-16.59 71.6-18.009 32.451-1.827 64.384-15.137 89.182-39.935 53.575-53.576 53.549-140.458-.091-193.994z" fill="#fed22b"/><circle cx="368.354" cy="143.639" fill="#72e4a0" r="97.937"/><path d="m277.74 350.213-9.07 9.07c-5.363 5.363-14.076 5.363-19.439 0l-96.52-96.52c-5.363-5.363-5.363-14.076 0-19.439l9.07-9.07c5.363-5.363 14.076-5.363 19.439 0l96.52 96.52c5.363 5.363 5.363 14.076 0 19.439z" fill="#60c8dd"/><path d="m236.968 232.995 17.611 49.115-18.198-6.49-24.158-67.369c10.089-22.405 16.911-45.757 18.198-70.742 1.704-32.67 15.017-64.86 39.973-89.816 53.491-53.491 140.268-53.534 193.815-.085 4.235 4.221 8.138 8.661 11.701 13.27-53.774-41.642-131.43-37.782-180.771 11.559-24.957 24.957-38.27 57.146-39.973 89.816-1.287 24.985-8.109 48.337-18.198 70.742z" fill="#fdc202"/><path d="m177.453 287.504-24.745-24.745c-5.359-5.359-5.359-14.069.007-19.435l9.071-9.071c5.359-5.359 14.069-5.359 19.428 0l24.745 24.745c-5.359-5.359-14.069-5.359-19.428 0l-9.071 9.071c-5.366 5.366-5.366 14.076-.007 19.435z" fill="#44bfd7"/><path d="m295.16 168.383c.007 20.722 6.441 39.952 17.427 55.775-25.48-17.689-42.165-47.156-42.172-80.519 0-54.085 43.848-97.933 97.94-97.94 33.363.007 62.831 16.692 80.52 42.172-15.822-10.987-35.046-17.427-55.775-17.427-54.092.006-97.94 43.854-97.94 97.939z" fill="#24d3b5"/><path d="m277.735 330.778-96.52-96.52c-5.366-5.366-5.366-14.067 0-19.433l9.069-9.069c5.366-5.366 14.067-5.366 19.433 0l96.52 96.52c5.366 5.366 5.366 14.067 0 19.433l-9.069 9.069c-5.366 5.366-14.067 5.366-19.433 0z" fill="#2cb3cd"/><path d="m205.959 258.998-24.745-24.745c-5.366-5.366-5.366-14.062 0-19.428l9.071-9.071c5.366-5.366 14.062-5.366 19.428 0l24.745 24.745c-5.366-5.366-14.062-5.366-19.428 0l-9.071 9.071c-5.366 5.366-5.366 14.062 0 19.428z" fill="#269ab1"/><path d="m43.047 493.698-26.767 10.308c-5.189 2.008-10.301-3.104-8.293-8.293l24.681-64.075 25.218-65.446c.446-1.139 1.038-1.646 1.782-2.39l46.23 1.859c.417.021.82.085 1.202.198l-23.338 23.338c-.495.495-.877 1.089-1.131 1.739z" fill="#60c8dd"/><path d="m149.074 451.441-1.534 1.534c-.495.495-1.089.877-1.739 1.131l-65.446 25.218-64.075 24.682c-5.189 2.008-10.301-3.104-8.293-8.293l24.681-64.075 25.218-65.446c.255-.65.636-1.244 1.131-1.739l.65-.65 46.23 1.859c2.63.099 4.737 2.234 4.8 4.871l.665 25.24c.071 2.658 2.206 4.793 4.864 4.864l25.275.658c2.623.078 4.744 2.156 4.864 4.765z" fill="#ffe5a0"/><path d="m43.047 493.698-26.767 10.308c-5.189 2.008-10.301-3.104-8.293-8.293l24.681-64.075 25.218-65.446c.446-1.139 1.038-1.646 1.782-2.39l46.23 1.859c.417.021.82.085 1.202.198l-23.338 23.338c-.495.495-.877 1.089-1.131 1.739z" fill="#ffdd81"/><path d="m81.021 479.325-64.075 24.681c-5.189 2.008-10.301-3.104-8.293-8.293l24.681-64.075z" fill="#887f89"/><path d="m43.047 493.698-26.767 10.308c-5.189 2.008-10.301-3.104-8.293-8.293l24.681-64.075 24.752 24.752z" fill="#2cb3cd"/><path d="m43.047 493.698-26.767 10.308c-5.189 2.008-10.301-3.104-8.293-8.293l24.681-64.075 24.752 24.752z" fill="#777078"/><path d="m504.66 141.235c-4.187-.134-7.594 3.137-7.716 7.276-1.98 67.752-55.668 121.812-122.212 125.558-24.97 1.41-47.881 6.71-69.92 16.163l-83.212-83.212c9.883-22.852 15.1-44.905 16.349-69.096 1.666-32.049 15.086-62.201 37.789-84.904 73.933-73.934 199.681-33.905 218.96 67.272.775 4.068 4.7 6.739 8.77 5.963 4.068-.775 6.737-4.702 5.962-8.77-21.525-112.978-161.851-157.516-244.298-75.069-25.329 25.329-40.302 58.971-42.161 94.733-1.072 20.77-5.318 39.857-13.259 59.443-7.947-4.077-17.963-2.844-24.693 3.886l-9.069 9.069c-3.602 3.601-5.735 8.272-6.137 13.294-5.025.401-9.697 2.534-13.298 6.135l-9.07 9.07c-7.831 7.832-8.3 20.296-1.239 28.678l-93.203 93.203c-.741.741-1.318 1.629-1.695 2.607l-50.279 130.504c-4.349 11.25 6.7 22.351 17.982 17.992l130.511-50.282c.978-.377 1.866-.954 2.607-1.695l93.203-93.203c8.369 7.05 20.834 6.606 28.679-1.239l9.07-9.07c3.6-3.6 5.733-8.272 6.134-13.298 5.022-.402 9.693-2.535 13.295-6.137l9.068-9.068c6.876-6.873 7.936-17.073 3.771-24.938 18.998-7.559 38.784-11.844 60.229-13.055 74.282-4.183 134.149-64.522 136.359-140.094.121-4.141-3.138-7.595-7.277-7.716zm-347.912 136.157 15.836 15.836-65.02 65.02-30.483-1.188zm-140.849 218.765 19.661-51.032 31.37 31.371zm66.343-25.56-40.782-40.783 22.446-58.259 39.397 1.536.726 27.643c.105 3.987 3.312 7.195 7.3 7.299l27.695.726 1.841 39.252zm73.013-35.88-1.419-30.253 33.974-33.974c2.929-2.928 2.929-7.676 0-10.605-2.928-2.928-7.676-2.928-10.605 0l-33.982 33.982-24.39-.639-.641-24.398 64.996-64.996 25.035 25.035-9.808 9.808c-2.929 2.928-2.929 7.676 0 10.605s7.676 2.928 10.605 0l9.808-9.808 15.836 15.836zm117.22-89.782-9.07 9.071c-2.435 2.435-6.398 2.435-8.834 0l-96.52-96.52c-2.436-2.436-2.436-6.399 0-8.835l9.07-9.07c2.416-2.415 6.337-2.445 8.788-.043.015.015.028.032.043.047l96.519 96.52c.017.017.036.031.053.048 2.387 2.442 2.372 6.362-.049 8.782zm28.497-28.504-9.069 9.069c-2.416 2.418-6.34 2.432-8.778.044-.016-.016-.029-.033-.044-.049l-96.52-96.519c-.015-.015-.032-.028-.048-.043-2.403-2.452-2.376-6.363.043-8.782l9.069-9.069c2.44-2.44 6.389-2.44 8.829 0l96.52 96.52c2.438 2.439 2.441 6.389-.002 8.829z"/><path d="m368.392 38.229c-58.138 0-105.436 47.298-105.436 105.436s47.298 105.435 105.436 105.435c58.137 0 105.435-47.298 105.435-105.436s-47.298-105.435-105.435-105.435zm0 195.873c-49.868 0-90.439-40.57-90.439-90.438s40.571-90.438 90.439-90.438c49.867 0 90.438 40.57 90.438 90.438s-40.571 90.438-90.438 90.438z"/><path d="m401.279 186.395c-35.141 27.121-86.833 2.125-86.833-42.731 0-44.656 51.441-69.907 86.728-42.811 3.286 2.524 7.993 1.904 10.515-1.38 2.523-3.285 1.905-7.992-1.38-10.515-45.096-34.627-110.861-2.386-110.861 54.706 0 38.015 30.928 68.943 68.943 68.943 15.354 0 29.895-4.958 42.05-14.339 3.279-2.53 3.885-7.24 1.355-10.518-2.53-3.28-7.239-3.882-10.517-1.355z"/></svg>