<svg id="Capa_1" enable-background="new 0 0 512 512" height="512" viewBox="0 0 512 512" width="512" xmlns="http://www.w3.org/2000/svg"><path d="m294.5 359.5-197 70h-90v30c0 24.853 20.147 45 45 45h287z" fill="#ffcf9c"/><path d="m294.5 359.5v100c0 24.853 20.147 45 45 45h30v-145z" fill="#ffaf7b"/><path d="m354.5 7.5v494.429c4.693 1.659 9.739 2.571 15 2.571 24.853 0 45-20.147 45-45v-75l-15-15 15-15v-302l45-45z" fill="#ffcf9c"/><path d="m459.5 7.5 15 75h30v-30c0-24.853-20.147-45-45-45z" fill="#ff8d55"/><path d="m459.5 7.5c-24.853 0-45 20.147-45 45v30h60v-30c0-24.853-6.716-45-15-45z" fill="#ffaf7b"/><path d="m142.5 7.5c-24.853 0-45 20.147-45 45v45l15 15-15 15v30l15 15-15 15v242h53.5l15 15 15-15h143.5v30c0 19.592 12.524 36.25 30 42.429 17.476-6.179 30-22.837 30-42.429v-75l-15-15 15-15v-302c0-24.853 20.147-45 45-45z" fill="#ffedbe"/><path d="m157.5 136h45v45h-45z" fill="#ff506f"/><path d="m459.5 0h-317c-28.949 0-52.5 23.551-52.5 52.5v45c0 1.989.79 3.897 2.197 5.303l9.697 9.697-9.697 9.697c-1.407 1.406-2.197 3.314-2.197 5.303v30c0 1.989.79 3.897 2.197 5.303l9.697 9.697-9.697 9.697c-1.407 1.406-2.197 3.314-2.197 5.303v212c0 4.142 3.358 7.5 7.5 7.5s7.5-3.358 7.5-7.5v-208.894l12.803-12.803c2.929-2.929 2.929-7.678 0-10.606l-12.803-12.803v-23.787l12.803-12.803c2.929-2.929 2.929-7.678 0-10.606l-12.803-12.804v-41.894c0-20.678 16.822-37.5 37.5-37.5h280.308c-9.745 9.537-15.808 22.821-15.808 37.5v298.894l-12.803 12.803c-2.929 2.929-2.929 7.678 0 10.606l12.803 12.803v71.894c0 20.678-16.822 37.5-37.5 37.5s-37.5-16.822-37.5-37.5v-30c0-4.142-3.358-7.5-7.5-7.5h-143.5c-1.989 0-3.897.79-5.303 2.197l-9.697 9.697-9.697-9.697c-1.406-1.407-3.314-2.197-5.303-2.197h-143.5c-4.142 0-7.5 3.358-7.5 7.5v30c0 28.949 23.551 52.5 52.5 52.5h317c28.949 0 52.5-23.551 52.5-52.5v-75c0-1.989-.79-3.897-2.197-5.303l-9.697-9.697 9.697-9.697c1.407-1.406 2.197-3.314 2.197-5.303v-302c0-20.678 16.822-37.5 37.5-37.5s37.5 16.822 37.5 37.5v22.5h-52.5c-4.142 0-7.5 3.358-7.5 7.5s3.358 7.5 7.5 7.5h60c4.142 0 7.5-3.358 7.5-7.5v-30c0-28.949-23.551-52.5-52.5-52.5zm-407 497c-20.678 0-37.5-16.822-37.5-37.5v-22.5h132.894l12.803 12.803c2.929 2.929 7.678 2.929 10.606 0l12.803-12.803h132.894v22.5c0 14.676 6.052 27.964 15.793 37.5z"/><path d="m157.5 323.5h182c4.142 0 7.5-3.358 7.5-7.5s-3.358-7.5-7.5-7.5h-182c-4.142 0-7.5 3.358-7.5 7.5s3.358 7.5 7.5 7.5z"/><path d="m157.5 278.5h182c4.142 0 7.5-3.358 7.5-7.5s-3.358-7.5-7.5-7.5h-182c-4.142 0-7.5 3.358-7.5 7.5s3.358 7.5 7.5 7.5z"/><path d="m157.5 233.5h182c4.142 0 7.5-3.358 7.5-7.5s-3.358-7.5-7.5-7.5h-182c-4.142 0-7.5 3.358-7.5 7.5s3.358 7.5 7.5 7.5z"/><path d="m232.5 188.5h107c4.142 0 7.5-3.358 7.5-7.5s-3.358-7.5-7.5-7.5h-107c-4.142 0-7.5 3.358-7.5 7.5s3.358 7.5 7.5 7.5z"/><path d="m232.5 143.5h107c4.142 0 7.5-3.358 7.5-7.5s-3.358-7.5-7.5-7.5h-107c-4.142 0-7.5 3.358-7.5 7.5s3.358 7.5 7.5 7.5z"/><path d="m157.5 188.5h45c4.142 0 7.5-3.358 7.5-7.5v-45c0-4.142-3.358-7.5-7.5-7.5h-45c-4.142 0-7.5 3.358-7.5 7.5v45c0 4.142 3.358 7.5 7.5 7.5zm7.5-45h30v30h-30z"/></svg>